<?xml version="1.0" standalone="no"?>
<!DOCTYPE svg PUBLIC "-//W3C//DTD SVG 20010904//EN"
 "http://www.w3.org/TR/2001/REC-SVG-20010904/DTD/svg10.dtd">
<svg version="1.0" xmlns="http://www.w3.org/2000/svg"
 width="96.000000pt" height="96.000000pt" viewBox="0 0 96.000000 96.000000"
 preserveAspectRatio="xMidYMid meet">

<g transform="translate(0.000000,96.000000) scale(0.100000,-0.100000)"
fill="#000000" stroke="none">
<path d="M495 866 l-27 -36 -30 25 c-38 32 -77 42 -89 24 -14 -22 -11 -27 31
-54 36 -23 60 -51 60 -72 0 -4 -30 -6 -66 -5 -85 5 -140 -16 -192 -72 -150
-163 -105 -498 80 -590 50 -25 59 -26 217 -26 188 0 219 9 285 74 132 133 139
406 14 542 -53 57 -107 77 -197 72 -65 -3 -71 -2 -71 15 0 24 38 87 52 87 5 0
8 10 6 23 -5 37 -42 34 -73 -7z m-44 -192 c26 -13 32 -13 62 3 20 11 54 17 90
17 48 -1 65 -6 100 -30 50 -36 96 -119 99 -184 l3 -45 -67 -3 -67 -3 -3 38
c-3 33 -6 38 -28 38 -22 0 -25 -5 -28 -37 l-3 -38 -49 0 -49 0 -3 58 c-3 53
-5 57 -28 57 -23 0 -25 -4 -28 -57 l-3 -58 -49 0 -49 0 -3 38 c-3 32 -6 37
-28 37 -22 0 -25 -5 -28 -38 l-3 -38 -67 3 -67 3 3 45 c11 162 162 262 293
194z m359 -307 c0 -32 -32 -116 -59 -158 -17 -25 -49 -56 -73 -69 -41 -24 -52
-25 -199 -25 l-156 0 -49 30 c-39 25 -55 44 -81 95 -18 36 -35 82 -39 103 l-6
37 331 0 c267 0 331 -3 331 -13z"/>
<path d="M426 271 c-25 -25 -37 -45 -33 -55 9 -22 37 -20 64 6 l23 21 23 -21
c27 -26 55 -28 64 -6 7 18 -63 94 -87 94 -9 0 -33 -18 -54 -39z"/>
</g>
</svg>
